<mxfile host="app.diagrams.net" agent="Mozilla/5.0 (Windows NT 10.0; Win64; x64; rv:136.0) Gecko/20100101 Firefox/136.0" version="26.0.11">
  <diagram name="全体図" id="6K07M-bdMIoADG_4eisC">
    <mxGraphModel dx="819" dy="426" grid="1" gridSize="10" guides="1" tooltips="1" connect="1" arrows="1" fold="1" page="1" pageScale="1" pageWidth="827" pageHeight="1169" math="0" shadow="0">
      <root>
        <mxCell id="0" />
        <mxCell id="1" parent="0" />
        <mxCell id="kn0atQgipb4GcFfO1hs7-2" value="" style="rounded=0;whiteSpace=wrap;html=1;fillColor=none;fontColor=#333333;strokeColor=light-dark(#000000, #959595);strokeWidth=3;" parent="1" vertex="1">
          <mxGeometry x="240" y="90" width="480" height="230" as="geometry" />
        </mxCell>
        <mxCell id="qhWnbRb1_LZRBb_jjzeY-1" value="" style="rounded=1;whiteSpace=wrap;html=1;fillColor=#daf9fb;" parent="1" vertex="1">
          <mxGeometry x="259" y="110" width="451" height="180" as="geometry" />
        </mxCell>
        <mxCell id="qhWnbRb1_LZRBb_jjzeY-2" value="M5Stack CoreS3 SE" style="rounded=0;whiteSpace=wrap;html=1;" parent="1" vertex="1">
          <mxGeometry x="439" y="190" width="121" height="30" as="geometry" />
        </mxCell>
        <mxCell id="qhWnbRb1_LZRBb_jjzeY-3" value="6軸 IMU&lt;div&gt;BMI088&lt;/div&gt;" style="rounded=0;whiteSpace=wrap;html=1;" parent="1" vertex="1">
          <mxGeometry x="579" y="120" width="70" height="30" as="geometry" />
        </mxCell>
        <mxCell id="qhWnbRb1_LZRBb_jjzeY-4" value="3軸 地磁気&lt;div&gt;QMC5883L&lt;/div&gt;" style="rounded=0;whiteSpace=wrap;html=1;" parent="1" vertex="1">
          <mxGeometry x="489" y="120" width="80" height="30" as="geometry" />
        </mxCell>
        <mxCell id="qhWnbRb1_LZRBb_jjzeY-5" value="気圧・温度&lt;div&gt;BME280&lt;/div&gt;" style="rounded=0;whiteSpace=wrap;html=1;" parent="1" vertex="1">
          <mxGeometry x="400" y="120" width="79" height="30" as="geometry" />
        </mxCell>
        <mxCell id="qhWnbRb1_LZRBb_jjzeY-6" value="GPS/GNSS&lt;div&gt;NEO-M9N-00B&lt;/div&gt;" style="rounded=0;whiteSpace=wrap;html=1;" parent="1" vertex="1">
          <mxGeometry x="289" y="120" width="100" height="30" as="geometry" />
        </mxCell>
        <mxCell id="qhWnbRb1_LZRBb_jjzeY-7" value="LoRa&lt;div&gt;E220-900T22S&lt;/div&gt;" style="rounded=0;whiteSpace=wrap;html=1;" parent="1" vertex="1">
          <mxGeometry x="289" y="190" width="100" height="30" as="geometry" />
        </mxCell>
        <mxCell id="qhWnbRb1_LZRBb_jjzeY-8" value="microSD" style="rounded=0;whiteSpace=wrap;html=1;" parent="1" vertex="1">
          <mxGeometry x="620" y="190" width="60.5" height="30" as="geometry" />
        </mxCell>
        <mxCell id="qhWnbRb1_LZRBb_jjzeY-11" value="対気速度計&lt;div&gt;RE12D-100-201-1&lt;/div&gt;" style="rounded=0;whiteSpace=wrap;html=1;" parent="1" vertex="1">
          <mxGeometry x="389" y="280" width="110" height="30" as="geometry" />
        </mxCell>
        <mxCell id="qhWnbRb1_LZRBb_jjzeY-12" value="&lt;div&gt;ペラ回転数計&lt;/div&gt;&lt;div&gt;EE-SX460-P1&lt;/div&gt;" style="rounded=0;whiteSpace=wrap;html=1;" parent="1" vertex="1">
          <mxGeometry x="289" y="280" width="90" height="30" as="geometry" />
        </mxCell>
        <mxCell id="qhWnbRb1_LZRBb_jjzeY-13" value="&lt;div&gt;高度計&lt;/div&gt;&lt;div&gt;MB1260&lt;/div&gt;" style="rounded=0;whiteSpace=wrap;html=1;" parent="1" vertex="1">
          <mxGeometry x="509" y="280" width="80" height="30" as="geometry" />
        </mxCell>
        <mxCell id="qhWnbRb1_LZRBb_jjzeY-18" value="" style="endArrow=classic;startArrow=classic;html=1;rounded=0;strokeColor=#ff0000;" parent="1" edge="1">
          <mxGeometry width="50" height="50" relative="1" as="geometry">
            <mxPoint x="529" y="150" as="sourcePoint" />
            <mxPoint x="529" y="190" as="targetPoint" />
            <Array as="points" />
          </mxGeometry>
        </mxCell>
        <mxCell id="qhWnbRb1_LZRBb_jjzeY-19" value="" style="endArrow=classic;html=1;rounded=0;entryX=0.25;entryY=1;entryDx=0;entryDy=0;strokeColor=#ff0000;" parent="1" target="qhWnbRb1_LZRBb_jjzeY-3" edge="1">
          <mxGeometry width="50" height="50" relative="1" as="geometry">
            <mxPoint x="529" y="170" as="sourcePoint" />
            <mxPoint x="569" y="150" as="targetPoint" />
            <Array as="points">
              <mxPoint x="569" y="170" />
              <mxPoint x="597" y="170" />
            </Array>
          </mxGeometry>
        </mxCell>
        <mxCell id="qhWnbRb1_LZRBb_jjzeY-20" value="" style="endArrow=classic;html=1;rounded=0;strokeColor=#ff3300;" parent="1" edge="1">
          <mxGeometry width="50" height="50" relative="1" as="geometry">
            <mxPoint x="529" y="170" as="sourcePoint" />
            <mxPoint x="462" y="150" as="targetPoint" />
            <Array as="points">
              <mxPoint x="462" y="170" />
            </Array>
          </mxGeometry>
        </mxCell>
        <mxCell id="qhWnbRb1_LZRBb_jjzeY-21" value="I2C" style="text;html=1;align=center;verticalAlign=middle;whiteSpace=wrap;rounded=0;fontColor=#ff0000;" parent="1" vertex="1">
          <mxGeometry x="489" y="170" width="46" height="20" as="geometry" />
        </mxCell>
        <mxCell id="qhWnbRb1_LZRBb_jjzeY-22" value="" style="endArrow=classic;startArrow=classic;html=1;rounded=0;strokeColor=#FF8000;entryX=0.106;entryY=0.002;entryDx=0;entryDy=0;entryPerimeter=0;" parent="1" edge="1">
          <mxGeometry width="50" height="50" relative="1" as="geometry">
            <mxPoint x="339" y="150" as="sourcePoint" />
            <mxPoint x="448.53999999999996" y="190" as="targetPoint" />
            <Array as="points">
              <mxPoint x="339" y="170" />
              <mxPoint x="449" y="170" />
            </Array>
          </mxGeometry>
        </mxCell>
        <mxCell id="qhWnbRb1_LZRBb_jjzeY-23" value="&lt;font color=&quot;#ff7b00&quot;&gt;UART&lt;/font&gt;" style="text;html=1;align=center;verticalAlign=middle;whiteSpace=wrap;rounded=0;" parent="1" vertex="1">
          <mxGeometry x="389" y="180" width="50" height="20" as="geometry" />
        </mxCell>
        <mxCell id="IAhwxvjueymBkviinYW7-1" value="SPI" style="text;html=1;align=center;verticalAlign=middle;whiteSpace=wrap;rounded=0;fontColor=light-dark(#008000, #00a01a);" parent="1" vertex="1">
          <mxGeometry x="569" y="180" width="40" height="20" as="geometry" />
        </mxCell>
        <mxCell id="IAhwxvjueymBkviinYW7-2" value="" style="endArrow=classic;startArrow=classic;html=1;rounded=0;strokeColor=#FF8000;entryX=0;entryY=0.5;entryDx=0;entryDy=0;exitX=1;exitY=0.5;exitDx=0;exitDy=0;" parent="1" source="qhWnbRb1_LZRBb_jjzeY-7" target="qhWnbRb1_LZRBb_jjzeY-2" edge="1">
          <mxGeometry width="50" height="50" relative="1" as="geometry">
            <mxPoint x="394" y="204.71" as="sourcePoint" />
            <mxPoint x="434" y="204.71" as="targetPoint" />
          </mxGeometry>
        </mxCell>
        <mxCell id="IAhwxvjueymBkviinYW7-3" value="" style="endArrow=classic;startArrow=classic;html=1;rounded=0;" parent="1" edge="1">
          <mxGeometry width="50" height="50" relative="1" as="geometry">
            <mxPoint x="360" y="280" as="sourcePoint" />
            <mxPoint x="450" y="220" as="targetPoint" />
            <Array as="points">
              <mxPoint x="360" y="240" />
              <mxPoint x="450" y="240" />
            </Array>
          </mxGeometry>
        </mxCell>
        <mxCell id="IAhwxvjueymBkviinYW7-4" value="" style="endArrow=classic;startArrow=classic;html=1;rounded=0;" parent="1" edge="1">
          <mxGeometry width="50" height="50" relative="1" as="geometry">
            <mxPoint x="459" y="280" as="sourcePoint" />
            <mxPoint x="459" y="220" as="targetPoint" />
          </mxGeometry>
        </mxCell>
        <mxCell id="IAhwxvjueymBkviinYW7-5" value="" style="endArrow=classic;startArrow=classic;html=1;rounded=0;exitX=0.272;exitY=1.007;exitDx=0;exitDy=0;exitPerimeter=0;" parent="1" edge="1">
          <mxGeometry width="50" height="50" relative="1" as="geometry">
            <mxPoint x="469.0000000000001" y="220.00000000000006" as="sourcePoint" />
            <mxPoint x="519" y="280" as="targetPoint" />
            <Array as="points">
              <mxPoint x="469.08000000000004" y="239.79000000000002" />
              <mxPoint x="519" y="240" />
            </Array>
          </mxGeometry>
        </mxCell>
        <mxCell id="IAhwxvjueymBkviinYW7-8" value="&lt;div style=&quot;text-align: left; font-size: 15px;&quot;&gt;MR-Module&lt;/div&gt;" style="text;html=1;align=center;verticalAlign=middle;whiteSpace=wrap;rounded=0;fontSize=15;" parent="1" vertex="1">
          <mxGeometry x="230" y="80" width="130" height="40" as="geometry" />
        </mxCell>
        <mxCell id="IAhwxvjueymBkviinYW7-37" value="" style="rounded=1;whiteSpace=wrap;html=1;" parent="1" vertex="1">
          <mxGeometry x="80" y="110" width="70" height="70" as="geometry" />
        </mxCell>
        <mxCell id="IAhwxvjueymBkviinYW7-38" value="" style="rounded=1;whiteSpace=wrap;html=1;" parent="1" vertex="1">
          <mxGeometry x="80" y="220" width="70" height="70" as="geometry" />
        </mxCell>
        <mxCell id="IAhwxvjueymBkviinYW7-40" value="Android" style="text;html=1;align=center;verticalAlign=middle;whiteSpace=wrap;rounded=0;" parent="1" vertex="1">
          <mxGeometry x="85" y="127.5" width="60" height="35" as="geometry" />
        </mxCell>
        <mxCell id="IAhwxvjueymBkviinYW7-41" value="&lt;div&gt;地上局&lt;/div&gt;" style="text;html=1;align=center;verticalAlign=middle;whiteSpace=wrap;rounded=0;" parent="1" vertex="1">
          <mxGeometry x="80" y="240" width="70" height="30" as="geometry" />
        </mxCell>
        <mxCell id="IAhwxvjueymBkviinYW7-42" value="" style="endArrow=classic;startArrow=classic;html=1;rounded=0;fontColor=#99FF33;strokeColor=#CC00CC;" parent="1" edge="1">
          <mxGeometry width="50" height="50" relative="1" as="geometry">
            <mxPoint x="150" y="260" as="sourcePoint" />
            <mxPoint x="289" y="210" as="targetPoint" />
            <Array as="points">
              <mxPoint x="250" y="260" />
              <mxPoint x="250" y="210" />
            </Array>
          </mxGeometry>
        </mxCell>
        <mxCell id="IAhwxvjueymBkviinYW7-43" value="" style="endArrow=classic;startArrow=classic;html=1;rounded=0;strokeColor=#FF3399;fontColor=#7EA6E0;exitX=1;exitY=0.5;exitDx=0;exitDy=0;" parent="1" edge="1">
          <mxGeometry width="50" height="50" relative="1" as="geometry">
            <mxPoint x="150.49999999999977" y="155.12" as="sourcePoint" />
            <mxPoint x="259.5" y="154.79" as="targetPoint" />
          </mxGeometry>
        </mxCell>
        <mxCell id="IAhwxvjueymBkviinYW7-46" value="&lt;font style=&quot;color: rgb(204, 0, 204);&quot;&gt;LoRa&lt;/font&gt;&lt;div&gt;&lt;font style=&quot;color: rgb(204, 0, 204);&quot;&gt;(920MHz)&lt;/font&gt;&lt;/div&gt;" style="text;html=1;align=center;verticalAlign=middle;whiteSpace=wrap;rounded=0;fontColor=#FF66FF;" parent="1" vertex="1">
          <mxGeometry x="169" y="260" width="60" height="30" as="geometry" />
        </mxCell>
        <mxCell id="IAhwxvjueymBkviinYW7-47" value="&lt;font style=&quot;color: rgb(255, 51, 153);&quot;&gt;Wifi&lt;/font&gt;&lt;div&gt;&lt;font style=&quot;color: rgb(255, 51, 153);&quot;&gt;(2.4GHz)&lt;/font&gt;&lt;/div&gt;" style="text;html=1;align=center;verticalAlign=middle;whiteSpace=wrap;rounded=0;fontColor=#EEE91D;" parent="1" vertex="1">
          <mxGeometry x="170" y="120" width="70" height="30" as="geometry" />
        </mxCell>
        <mxCell id="5KmOA9PAkvmJi2R7xXo4-1" value="" style="endArrow=classic;startArrow=classic;html=1;rounded=0;strokeColor=light-dark(#008000, #ce6100);entryX=0;entryY=0.5;entryDx=0;entryDy=0;exitX=1;exitY=0.5;exitDx=0;exitDy=0;fontColor=#000000;" parent="1" target="qhWnbRb1_LZRBb_jjzeY-8" edge="1">
          <mxGeometry width="50" height="50" relative="1" as="geometry">
            <mxPoint x="559" y="204.5" as="sourcePoint" />
            <mxPoint x="609" y="204.5" as="targetPoint" />
          </mxGeometry>
        </mxCell>
      </root>
    </mxGraphModel>
  </diagram>
</mxfile>
